<svg width="21" height="21" viewBox="0 0 21 21" fill="none" xmlns="http://www.w3.org/2000/svg">
<path d="M5.86 19.43C6.33496 19.43 6.72 19.0449 6.72 18.57C6.72 18.095 6.33496 17.71 5.86 17.71C5.38504 17.71 5 18.095 5 18.57C5 19.0449 5.38504 19.43 5.86 19.43Z" fill="white"/>
<path d="M17.86 19.43C18.335 19.43 18.72 19.0449 18.72 18.57C18.72 18.095 18.335 17.71 17.86 17.71C17.385 17.71 17 18.095 17 18.57C17 19.0449 17.385 19.43 17.86 19.43Z" fill="white"/>
<path d="M5.86 19.43C6.33496 19.43 6.72 19.0449 6.72 18.57C6.72 18.095 6.33496 17.71 5.86 17.71C5.38504 17.71 5 18.095 5 18.57C5 19.0449 5.38504 19.43 5.86 19.43Z" stroke="white" stroke-width="2.064" stroke-miterlimit="10" stroke-linecap="square"/>
<path d="M17.86 19.43C18.335 19.43 18.72 19.0449 18.72 18.57C18.72 18.095 18.335 17.71 17.86 17.71C17.385 17.71 17 18.095 17 18.57C17 19.0449 17.385 19.43 17.86 19.43Z" stroke="white" stroke-width="2.064" stroke-miterlimit="10" stroke-linecap="square"/>
<path d="M4.80804 5.70991L19.6 5.70991L18.157 12.927C17.9961 13.7311 17.2901 14.3099 16.4705 14.3099L7.3459 14.3099C6.48418 14.3099 5.7549 13.6718 5.64138 12.817L4.12004 1.40991L1.54004 1.40991" stroke="white" stroke-width="2.064" stroke-miterlimit="10" stroke-linecap="round"/>
</svg>
