<svg width="20" height="20" viewBox="0 0 20 20" fill="none" xmlns="http://www.w3.org/2000/svg">
<path d="M19.6001 10.3676C19.5993 5.2609 15.6007 1.04861 10.5009 0.7822C5.40114 0.515787 0.985393 4.28851 0.452495 9.36734C-0.0804037 14.4462 3.45609 19.0533 8.50008 19.8512L8.50008 13.1426H6.06288V10.3676H8.50008V8.25262C8.50008 5.84662 9.93348 4.51762 12.1259 4.51762C12.8459 4.5276 13.5642 4.59017 14.2751 4.70482V7.06762L13.0643 7.06762C12.6463 7.01211 12.2258 7.14969 11.9215 7.44151C11.6172 7.73333 11.4621 8.14771 11.5001 8.56762V10.3676H14.1629L13.7369 13.1426H11.5001L11.5001 19.8512C16.1655 19.1132 19.6008 15.091 19.6001 10.3676Z" fill="#FF5733"/>
</svg>
