<svg width="32" height="21" viewBox="0 0 32 21" fill="none" xmlns="http://www.w3.org/2000/svg">
<path d="M22.2587 4.1343L20.4122 0.93655C20.0965 0.389897 19.3074 0.389979 18.9919 0.936714L15.7294 6.58963L13.1726 11.0175L15.7294 15.4453L17.4523 12.4632L18.2863 11.0175L19.7019 8.56489L26.9417 20.7894H30.9238C31.5633 20.7894 31.9567 20.09 31.6246 19.5435L22.2587 4.1343Z" fill="#636AE8"/>
<path d="M15.2278 16.3445H10.6875L8.13062 20.7723H12.6709L15.2278 16.3445Z" fill="url(#paint0_linear_40_906)"/>
<path d="M10.6848 16.3616L8.12798 20.7895H22.5314C23.1627 20.7895 23.5572 20.1061 23.2416 19.5594L21.395 16.3616L18.3114 11.0175L15.7546 6.58965L14.3362 4.13432L12.4896 0.936321C12.1739 0.389709 11.3849 0.389709 11.0693 0.936362L0.317139 19.5595C0.0015173 20.1061 0.39604 20.7895 1.02728 20.7895H4.72067L9.52985 12.4633L11.7794 8.5649L13.1978 11.0175L15.7546 15.4453L16.2813 16.3616H15.2251H10.6848Z" fill="#999DF0"/>
<defs>
<linearGradient id="paint0_linear_40_906" x1="22.0616" y1="0.794948" x2="10.5091" y2="20.5611" gradientUnits="userSpaceOnUse">
<stop stop-color="#58CAEF"/>
<stop offset="0.18" stop-color="#4EBEE8"/>
<stop offset="0.5" stop-color="#33A1D6"/>
<stop offset="0.92" stop-color="#0871B9"/>
<stop offset="1" stop-color="#0067B3"/>
</linearGradient>
</defs>
</svg>
