<svg width="18" height="19" viewBox="0 0 18 19" fill="none" xmlns="http://www.w3.org/2000/svg">
<path d="M16.8 0.367676L1.2 0.367676C0.537258 0.367676 0 0.904934 0 1.56768L0 17.1677C0 17.8304 0.537258 18.3677 1.2 18.3677L16.8 18.3677C17.4627 18.3677 18 17.8304 18 17.1677L18 1.56768C18 0.904934 17.4627 0.367676 16.8 0.367676ZM5.3322 15.7241L2.6244 15.7241L2.6244 7.11768H5.3322L5.3322 15.7241ZM3.978 5.93628C3.10878 5.93363 2.40604 5.22731 2.4078 4.35809C2.40957 3.48886 3.11517 2.7854 3.9844 2.78628C4.85362 2.78716 5.5578 3.49205 5.5578 4.36128C5.55796 4.77987 5.39142 5.1813 5.09497 5.47685C4.79853 5.77239 4.3966 5.93771 3.978 5.93628ZM15.3726 15.7241H12.72V11.5613C12.72 10.5491 12.72 9.31128 11.31 9.31128C9.9 9.31128 9.7302 10.3805 9.7302 11.5049V15.7805H7.08L7.08 7.11768L9.5616 7.11768V8.29908H9.618C10.1395 7.39741 11.1156 6.85666 12.1566 6.89268C14.8644 6.89268 15.372 8.69268 15.372 10.9991L15.3726 15.7241Z" fill="#FF5733"/>
</svg>
