<svg width="44" height="20" viewBox="0 0 44 20" fill="none" xmlns="http://www.w3.org/2000/svg">
<path d="M10.8038 17.9972L13.8767 13.9561C14.3054 13.3944 15.163 13.3944 15.5838 13.9561L18.6566 17.9972C19.0934 18.5745 18.6805 19.4015 17.942 19.4015H11.5184C10.78 19.4015 10.3591 18.5745 10.8038 17.9972Z" fill="#E8618C"/>
<path d="M43.7147 18.0842L30.3409 0.514992C29.9186 -0.0383632 29.0739 -0.0383632 28.6594 0.514992L24.1545 6.43288C23.8886 6.78642 23.8886 7.26294 24.1545 7.61648L25.6483 9.5763C26.0472 10.1066 26.8528 10.1066 27.2594 9.5763L28.8236 7.52425C29.1678 7.07077 29.856 7.07077 30.1923 7.52425L38.6155 18.5838C39.0377 19.1372 39.6947 19.46 40.3986 19.46H43.0186C43.746 19.46 44.1605 18.6453 43.7225 18.0765L43.7147 18.0842Z" fill="#636AE8"/>
<path d="M28.6397 18.0771L22.9769 10.6327L20.2353 7.02963L15.2833 0.514827C14.8615 -0.0383082 14.018 -0.0383082 13.604 0.514827L0.247616 18.0771C-0.189782 18.6456 0.224187 19.46 0.950583 19.46H3.56721C4.27016 19.46 4.92626 19.1373 5.34805 18.5841L13.7602 7.52898C14.1039 7.08337 14.7912 7.08337 15.1271 7.52898L17.4937 10.6327L20.2353 14.2358L23.5392 18.5841C23.961 19.1373 24.6171 19.46 25.3201 19.46H27.9367C28.6631 19.46 29.0693 18.6456 28.6397 18.0771Z" fill="#636AE8"/>
</svg>
