<svg width="20" height="17" viewBox="0 0 20 17" fill="none" xmlns="http://www.w3.org/2000/svg">
<path d="M19.5998 2.42763C18.8798 2.72763 18.1598 2.96763 17.3198 3.02763C18.1598 2.54763 18.7598 1.76763 19.0598 0.867627C18.2798 1.34763 17.4398 1.64763 16.5398 1.82763C15.8198 1.04763 14.7998 0.567627 13.7198 0.567627C11.5598 0.567627 9.75984 2.30763 9.75984 4.52763C9.75984 4.82763 9.81984 5.12763 9.87984 5.42763C6.57984 5.24763 3.69984 3.68763 1.71984 1.28763C1.35984 1.88763 1.17984 2.54763 1.17984 3.26763C1.17984 4.64763 1.89984 5.84763 2.91984 6.56763C2.25984 6.56763 1.65984 6.38763 1.11984 6.08763V6.14763C1.11984 8.06763 2.49984 9.62763 4.29984 9.98763C3.93984 10.0476 3.63984 10.1076 3.27984 10.1076C3.03984 10.1076 2.79984 10.1076 2.55984 10.0476C3.03984 11.6076 4.53984 12.7476 6.21984 12.8076C4.89984 13.8876 3.15984 14.4876 1.29984 14.4876C0.999844 14.4876 0.639844 14.4876 0.339844 14.4276C2.13984 15.5076 4.23984 16.1676 6.45984 16.1676C13.7198 16.1676 17.6798 10.1676 17.6798 4.94763C17.6798 4.76763 17.6798 4.58763 17.6798 4.46763C18.3998 3.86763 19.0598 3.20763 19.5998 2.42763Z" fill="#FF5733"/>
</svg>
