<svg width="20" height="15" viewBox="0 0 20 15" fill="none" xmlns="http://www.w3.org/2000/svg">
<path d="M19.4199 3.52765C19.4199 3.52765 19.2399 2.20765 18.6399 1.60765C17.9199 0.827647 17.0799 0.827647 16.7199 0.767647C14.0199 0.587647 9.9999 0.587646 9.9999 0.587646C9.9999 0.587646 5.9799 0.587647 3.2799 0.767647C2.9199 0.827647 2.0799 0.827647 1.3599 1.60765C0.759902 2.20765 0.579902 3.52765 0.579902 3.52765C0.579902 3.52765 0.399902 5.08765 0.399902 6.64765L0.399902 8.08765C0.399902 9.64765 0.579902 11.2076 0.579902 11.2076C0.579902 11.2076 0.759902 12.5276 1.3599 13.1276C2.0799 13.9076 3.0399 13.8476 3.4599 13.9676C5.0199 14.0876 9.9999 14.1476 9.9999 14.1476C9.9999 14.1476 14.0199 14.1476 16.7199 13.9676C17.0799 13.9076 17.9199 13.9076 18.6399 13.1276C19.2399 12.5276 19.4199 11.2076 19.4199 11.2076C19.4199 11.2076 19.5999 9.64765 19.5999 8.08765L19.5999 6.64765C19.5999 5.08765 19.4199 3.52765 19.4199 3.52765ZM8.0199 9.88765L8.0199 4.48765L13.1799 7.18765L8.0199 9.88765Z" fill="#FF5733"/>
</svg>
